<mxfile host="app.diagrams.net" agent="Mozilla/5.0 (Windows NT 10.0; Win64; x64) AppleWebKit/537.36 (KHTML, like Gecko) Chrome/133.0.0.0 Safari/537.36" version="26.0.16">
  <diagram name="第 1 页" id="Tz9k-Qq4xJOBe_oHHy0W">
    <mxGraphModel dx="3675" dy="1965" grid="1" gridSize="10" guides="1" tooltips="1" connect="1" arrows="1" fold="1" page="1" pageScale="1" pageWidth="827" pageHeight="1169" math="0" shadow="0">
      <root>
        <mxCell id="0" />
        <mxCell id="1" parent="0" />
        <mxCell id="bW2r_VResAjGFa71yLcC-1" value="Cosine Similarity" style="rounded=1;whiteSpace=wrap;html=1;fontSize=15;" vertex="1" parent="1">
          <mxGeometry x="-2283.25" y="-400" width="117" height="45" as="geometry" />
        </mxCell>
        <mxCell id="bW2r_VResAjGFa71yLcC-2" value="Multi-Head Self-Attention" style="rounded=1;whiteSpace=wrap;html=1;fontSize=15;" vertex="1" parent="1">
          <mxGeometry x="-2313.5" y="-156.98000000000002" width="224" height="45" as="geometry" />
        </mxCell>
        <mxCell id="bW2r_VResAjGFa71yLcC-3" value="Fully-Connection" style="rounded=1;whiteSpace=wrap;html=1;fontSize=15;" vertex="1" parent="1">
          <mxGeometry x="-2313.5" y="-228.75" width="224" height="45" as="geometry" />
        </mxCell>
        <mxCell id="bW2r_VResAjGFa71yLcC-4" value="" style="endArrow=block;html=1;rounded=0;exitX=0.5;exitY=0;exitDx=0;exitDy=0;entryX=0.5;entryY=1;entryDx=0;entryDy=0;endFill=1;fontSize=15;" edge="1" parent="1" source="bW2r_VResAjGFa71yLcC-2" target="bW2r_VResAjGFa71yLcC-3">
          <mxGeometry width="50" height="50" relative="1" as="geometry">
            <mxPoint x="-2360" y="-129.62" as="sourcePoint" />
            <mxPoint x="-2360" y="-189.62" as="targetPoint" />
          </mxGeometry>
        </mxCell>
        <mxCell id="bW2r_VResAjGFa71yLcC-5" value="" style="endArrow=block;html=1;rounded=0;entryX=0;entryY=0.5;entryDx=0;entryDy=0;endFill=1;fontSize=15;" edge="1" parent="1" target="bW2r_VResAjGFa71yLcC-7">
          <mxGeometry width="50" height="50" relative="1" as="geometry">
            <mxPoint x="-2201" y="-171.51999999999998" as="sourcePoint" />
            <mxPoint x="-2210.979999999997" y="-300.14000000000004" as="targetPoint" />
            <Array as="points">
              <mxPoint x="-2330" y="-171.51999999999998" />
              <mxPoint x="-2330" y="-258.52000000000004" />
            </Array>
          </mxGeometry>
        </mxCell>
        <mxCell id="bW2r_VResAjGFa71yLcC-6" value="" style="endArrow=block;html=1;rounded=0;exitX=0.5;exitY=0;exitDx=0;exitDy=0;entryX=0.5;entryY=1;entryDx=0;entryDy=0;endFill=1;fontSize=15;" edge="1" parent="1" source="bW2r_VResAjGFa71yLcC-3" target="bW2r_VResAjGFa71yLcC-7">
          <mxGeometry width="50" height="50" relative="1" as="geometry">
            <mxPoint x="-2201" y="-228.51999999999998" as="sourcePoint" />
            <mxPoint x="-2201.5" y="-330.62000000000006" as="targetPoint" />
          </mxGeometry>
        </mxCell>
        <mxCell id="bW2r_VResAjGFa71yLcC-7" value="" style="shape=orEllipse;perimeter=ellipsePerimeter;whiteSpace=wrap;html=1;backgroundOutline=1;aspect=fixed;fontSize=15;" vertex="1" parent="1">
          <mxGeometry x="-2210.98" y="-268.27000000000004" width="20" height="20" as="geometry" />
        </mxCell>
      </root>
    </mxGraphModel>
  </diagram>
</mxfile>
